<mxfile host="app.diagrams.net" modified="2023-04-29T09:58:34.558Z" agent="Mozilla/5.0 (Windows NT 10.0; Win64; x64) AppleWebKit/537.36 (KHTML, like Gecko) Chrome/112.0.0.0 Safari/537.36" etag="WFwx7WUvwK9gtTDhJhS0" version="21.2.3" type="device">
  <diagram id="ql5Kk59QJ9DEcHVxNvi2" name="Page-1">
    <mxGraphModel dx="712" dy="689" grid="1" gridSize="10" guides="1" tooltips="1" connect="1" arrows="1" fold="1" page="1" pageScale="1" pageWidth="827" pageHeight="1169" math="0" shadow="0">
      <root>
        <mxCell id="0" />
        <mxCell id="1" parent="0" />
        <mxCell id="EnnZCZ1k5EJQhtIXUkQg-2" value="Process (0)" style="swimlane;fillColor=#E6E6E6;" parent="1" vertex="1">
          <mxGeometry x="335" y="120" width="145" height="110" as="geometry" />
        </mxCell>
        <mxCell id="EnnZCZ1k5EJQhtIXUkQg-3" value="Trattative/negoziazione &lt;br&gt;per i trailer" style="text;html=1;align=center;verticalAlign=middle;resizable=0;points=[];autosize=1;strokeColor=none;fillColor=none;" parent="EnnZCZ1k5EJQhtIXUkQg-2" vertex="1">
          <mxGeometry x="-5" y="40" width="150" height="40" as="geometry" />
        </mxCell>
        <mxCell id="EnnZCZ1k5EJQhtIXUkQg-4" value="" style="group" parent="1" vertex="1" connectable="0">
          <mxGeometry x="100" y="125" width="110" height="115" as="geometry" />
        </mxCell>
        <mxCell id="EnnZCZ1k5EJQhtIXUkQg-5" value="Titolare" style="rounded=0;whiteSpace=wrap;html=1;fillColor=none;" parent="EnnZCZ1k5EJQhtIXUkQg-4" vertex="1">
          <mxGeometry width="109.99999999999999" height="114.99999999999999" as="geometry" />
        </mxCell>
        <mxCell id="EnnZCZ1k5EJQhtIXUkQg-6" value="ID" style="text;html=1;strokeColor=none;fillColor=none;align=center;verticalAlign=middle;whiteSpace=wrap;rounded=0;" parent="EnnZCZ1k5EJQhtIXUkQg-4" vertex="1">
          <mxGeometry width="44" height="24.642857142857142" as="geometry" />
        </mxCell>
        <mxCell id="i8b3c9-z0wp-TJyXyb2S-1" value="Agente distributore" style="rounded=0;whiteSpace=wrap;html=1;fillColor=none;" parent="1" vertex="1">
          <mxGeometry x="605" y="125" width="110" height="115" as="geometry" />
        </mxCell>
        <mxCell id="i8b3c9-z0wp-TJyXyb2S-2" value="" style="group" parent="1" vertex="1" connectable="0">
          <mxGeometry x="340" y="330" width="110" height="100" as="geometry" />
        </mxCell>
        <mxCell id="i8b3c9-z0wp-TJyXyb2S-3" value="Sponsors" style="rounded=0;whiteSpace=wrap;html=1;fillColor=none;" parent="i8b3c9-z0wp-TJyXyb2S-2" vertex="1">
          <mxGeometry width="109.99999999999999" height="100" as="geometry" />
        </mxCell>
        <mxCell id="i8b3c9-z0wp-TJyXyb2S-4" value="ID" style="text;html=1;strokeColor=none;fillColor=none;align=center;verticalAlign=middle;whiteSpace=wrap;rounded=0;" parent="i8b3c9-z0wp-TJyXyb2S-2" vertex="1">
          <mxGeometry width="44" height="21.42857142857143" as="geometry" />
        </mxCell>
        <mxCell id="i8b3c9-z0wp-TJyXyb2S-8" value="" style="endArrow=classic;html=1;rounded=0;entryX=-0.006;entryY=0.163;entryDx=0;entryDy=0;entryPerimeter=0;" parent="1" target="EnnZCZ1k5EJQhtIXUkQg-2" edge="1">
          <mxGeometry relative="1" as="geometry">
            <mxPoint x="210" y="140" as="sourcePoint" />
            <mxPoint x="330" y="140" as="targetPoint" />
          </mxGeometry>
        </mxCell>
        <mxCell id="i8b3c9-z0wp-TJyXyb2S-9" value="Pellicola selezionata" style="edgeLabel;resizable=0;html=1;align=center;verticalAlign=middle;" parent="i8b3c9-z0wp-TJyXyb2S-8" connectable="0" vertex="1">
          <mxGeometry relative="1" as="geometry" />
        </mxCell>
        <mxCell id="i8b3c9-z0wp-TJyXyb2S-10" value="" style="endArrow=classic;html=1;rounded=0;entryX=-0.001;entryY=0.185;entryDx=0;entryDy=0;exitX=1;exitY=0.25;exitDx=0;exitDy=0;entryPerimeter=0;" parent="1" source="EnnZCZ1k5EJQhtIXUkQg-2" target="i8b3c9-z0wp-TJyXyb2S-1" edge="1">
          <mxGeometry relative="1" as="geometry">
            <mxPoint x="485" y="150" as="sourcePoint" />
            <mxPoint x="595" y="170" as="targetPoint" />
          </mxGeometry>
        </mxCell>
        <mxCell id="i8b3c9-z0wp-TJyXyb2S-11" value="Pellicola selezionata" style="edgeLabel;resizable=0;html=1;align=center;verticalAlign=middle;" parent="i8b3c9-z0wp-TJyXyb2S-10" connectable="0" vertex="1">
          <mxGeometry relative="1" as="geometry" />
        </mxCell>
        <mxCell id="i8b3c9-z0wp-TJyXyb2S-12" value="" style="endArrow=classic;html=1;rounded=0;entryX=1.016;entryY=0.2;entryDx=0;entryDy=0;exitX=-0.007;exitY=0.385;exitDx=0;exitDy=0;exitPerimeter=0;entryPerimeter=0;" parent="1" source="i8b3c9-z0wp-TJyXyb2S-1" target="EnnZCZ1k5EJQhtIXUkQg-3" edge="1">
          <mxGeometry relative="1" as="geometry">
            <mxPoint x="220" y="160" as="sourcePoint" />
            <mxPoint x="345" y="158" as="targetPoint" />
          </mxGeometry>
        </mxCell>
        <mxCell id="i8b3c9-z0wp-TJyXyb2S-13" value="Locandine/trailer" style="edgeLabel;resizable=0;html=1;align=center;verticalAlign=middle;" parent="i8b3c9-z0wp-TJyXyb2S-12" connectable="0" vertex="1">
          <mxGeometry relative="1" as="geometry" />
        </mxCell>
        <mxCell id="i8b3c9-z0wp-TJyXyb2S-14" value="" style="endArrow=classic;html=1;rounded=0;exitX=0.035;exitY=-0.047;exitDx=0;exitDy=0;exitPerimeter=0;" parent="1" source="EnnZCZ1k5EJQhtIXUkQg-3" edge="1">
          <mxGeometry relative="1" as="geometry">
            <mxPoint x="335" y="170" as="sourcePoint" />
            <mxPoint x="210" y="158" as="targetPoint" />
            <Array as="points" />
          </mxGeometry>
        </mxCell>
        <mxCell id="i8b3c9-z0wp-TJyXyb2S-15" value="Trailer" style="edgeLabel;resizable=0;html=1;align=center;verticalAlign=middle;" parent="i8b3c9-z0wp-TJyXyb2S-14" connectable="0" vertex="1">
          <mxGeometry relative="1" as="geometry">
            <mxPoint x="1" y="1" as="offset" />
          </mxGeometry>
        </mxCell>
        <mxCell id="i8b3c9-z0wp-TJyXyb2S-24" value="" style="endArrow=classic;html=1;rounded=0;entryX=0.006;entryY=0.453;entryDx=0;entryDy=0;exitX=0.994;exitY=0.455;exitDx=0;exitDy=0;exitPerimeter=0;entryPerimeter=0;" parent="1" source="EnnZCZ1k5EJQhtIXUkQg-5" target="EnnZCZ1k5EJQhtIXUkQg-3" edge="1">
          <mxGeometry relative="1" as="geometry">
            <mxPoint x="210" y="192" as="sourcePoint" />
            <mxPoint x="335" y="190" as="targetPoint" />
          </mxGeometry>
        </mxCell>
        <mxCell id="i8b3c9-z0wp-TJyXyb2S-25" value="Valutazione trailer" style="edgeLabel;resizable=0;html=1;align=center;verticalAlign=middle;" parent="i8b3c9-z0wp-TJyXyb2S-24" connectable="0" vertex="1">
          <mxGeometry relative="1" as="geometry" />
        </mxCell>
        <mxCell id="i8b3c9-z0wp-TJyXyb2S-26" value="" style="endArrow=classic;html=1;rounded=0;exitX=0.5;exitY=0;exitDx=0;exitDy=0;" parent="1" source="i8b3c9-z0wp-TJyXyb2S-4" edge="1">
          <mxGeometry relative="1" as="geometry">
            <mxPoint x="320" y="310" as="sourcePoint" />
            <mxPoint x="362" y="230" as="targetPoint" />
          </mxGeometry>
        </mxCell>
        <mxCell id="i8b3c9-z0wp-TJyXyb2S-27" value="Pubblicità" style="edgeLabel;resizable=0;html=1;align=center;verticalAlign=middle;" parent="i8b3c9-z0wp-TJyXyb2S-26" connectable="0" vertex="1">
          <mxGeometry relative="1" as="geometry" />
        </mxCell>
        <mxCell id="i8b3c9-z0wp-TJyXyb2S-29" value="" style="endArrow=classic;html=1;rounded=0;entryX=1.008;entryY=0.649;entryDx=0;entryDy=0;entryPerimeter=0;exitX=0.035;exitY=0.971;exitDx=0;exitDy=0;exitPerimeter=0;" parent="1" source="EnnZCZ1k5EJQhtIXUkQg-3" target="EnnZCZ1k5EJQhtIXUkQg-5" edge="1">
          <mxGeometry relative="1" as="geometry">
            <mxPoint x="330" y="210" as="sourcePoint" />
            <mxPoint x="210" y="210" as="targetPoint" />
          </mxGeometry>
        </mxCell>
        <mxCell id="i8b3c9-z0wp-TJyXyb2S-30" value="Pubblicità" style="edgeLabel;resizable=0;html=1;align=center;verticalAlign=middle;" parent="i8b3c9-z0wp-TJyXyb2S-29" connectable="0" vertex="1">
          <mxGeometry relative="1" as="geometry" />
        </mxCell>
        <mxCell id="i8b3c9-z0wp-TJyXyb2S-31" value="" style="endArrow=classic;html=1;rounded=0;exitX=0.806;exitY=0;exitDx=0;exitDy=0;exitPerimeter=0;" parent="1" source="i8b3c9-z0wp-TJyXyb2S-3" edge="1">
          <mxGeometry relative="1" as="geometry">
            <mxPoint x="414" y="312" as="sourcePoint" />
            <mxPoint x="430" y="230" as="targetPoint" />
          </mxGeometry>
        </mxCell>
        <mxCell id="i8b3c9-z0wp-TJyXyb2S-32" value="Percentuale &lt;br&gt;di incasso" style="edgeLabel;resizable=0;html=1;align=center;verticalAlign=middle;" parent="i8b3c9-z0wp-TJyXyb2S-31" connectable="0" vertex="1">
          <mxGeometry relative="1" as="geometry" />
        </mxCell>
        <mxCell id="i8b3c9-z0wp-TJyXyb2S-33" value="" style="endArrow=classic;html=1;rounded=0;" parent="1" edge="1">
          <mxGeometry relative="1" as="geometry">
            <mxPoint x="331" y="220" as="sourcePoint" />
            <mxPoint x="211" y="220" as="targetPoint" />
          </mxGeometry>
        </mxCell>
        <mxCell id="i8b3c9-z0wp-TJyXyb2S-34" value="Percentuale &lt;br&gt;di incasso" style="edgeLabel;resizable=0;html=1;align=center;verticalAlign=middle;" parent="i8b3c9-z0wp-TJyXyb2S-33" connectable="0" vertex="1">
          <mxGeometry relative="1" as="geometry" />
        </mxCell>
      </root>
    </mxGraphModel>
  </diagram>
</mxfile>
